<?xml version="1.0" standalone="no"?>
<!DOCTYPE svg PUBLIC "-//W3C//DTD SVG 20010904//EN"
 "http://www.w3.org/TR/2001/REC-SVG-20010904/DTD/svg10.dtd">
<svg version="1.0" xmlns="http://www.w3.org/2000/svg"
 width="180.000000pt" height="180.000000pt" viewBox="0 0 180.000000 180.000000"
 preserveAspectRatio="xMidYMid meet">
<metadata>
Created by potrace 1.11, written by Peter Selinger 2001-2013
</metadata>
<g transform="translate(0.000000,180.000000) scale(0.100000,-0.100000)"
fill="#000000" stroke="none">
<path d="M1203 1733 c-43 -38 -91 -79 -107 -93 -17 -14 -42 -36 -57 -50 -15
-14 -44 -38 -64 -55 -21 -16 -47 -39 -59 -50 -55 -48 -95 -83 -151 -130 -33
-28 -64 -55 -70 -61 -5 -6 -57 -51 -115 -100 -100 -85 -159 -137 -184 -159 -6
-6 -60 -53 -121 -104 -121 -102 -139 -129 -110 -161 17 -19 31 -20 326 -22
l309 -3 -51 -100 c-28 -55 -107 -210 -176 -343 -132 -259 -140 -285 -88 -298
26 -6 51 6 90 43 11 10 70 61 130 113 61 52 126 108 145 126 19 17 76 67 125
109 91 79 170 146 215 185 14 12 45 38 69 58 24 21 51 44 60 53 9 8 81 71 161
139 156 134 169 147 170 170 0 44 -3 45 -335 50 l-315 5 46 90 c25 50 104 203
175 342 71 138 129 258 129 265 0 19 -32 48 -53 48 -9 0 -51 -30 -94 -67z"/>
</g>
</svg>
